<?xml version="1.0" standalone="no"?><!DOCTYPE svg PUBLIC "-//W3C//DTD SVG 1.1//EN" "http://www.w3.org/Graphics/SVG/1.1/DTD/svg11.dtd"><svg t="1745163441072" class="icon" viewBox="0 0 1024 1024" version="1.1" xmlns="http://www.w3.org/2000/svg" p-id="1499" xmlns:xlink="http://www.w3.org/1999/xlink" width="200" height="200"><path d="M624.18944 260.82304v-48.88576c0-61.85984-50.3296-112.18944-112.18944-112.18944s-112.18944 50.3296-112.18944 112.18944v48.88576C177.80736 311.9104 11.69408 510.99648 11.69408 748.288v20.48h1000.6016v-20.48c0-237.29152-166.10304-436.3776-388.10624-487.46496z m-183.41888-48.88576A71.3216 71.3216 0 0 1 512 140.70784a71.31136 71.31136 0 0 1 71.22944 71.22944v41.19552c-23.27552-3.33824-47.04256-5.15072-71.22944-5.15072s-47.95392 1.82272-71.22944 5.15072v-41.19552zM53.10464 727.808C63.85664 483.9936 265.58464 288.94208 512 288.94208s448.14336 195.05152 458.88512 438.86592H53.10464zM11.69408 843.84768h1000.6016v40.96H11.69408z" fill="#1296db" p-id="1500"></path></svg>